<svg xmlns="http://www.w3.org/2000/svg" width="17.625" height="13.594" viewBox="0 0 17.625 13.594">
  <defs>
    <style>
      .cls-1 {
        fill: #fff;
        fill-rule: evenodd;
      }
    </style>
  </defs>
  <path id="SHOPPING_CART" data-name="SHOPPING CART" class="cls-1" d="M17.726,2.663h0l-2.475,5.5h0a0.824,0.824,0,0,1-.7.485h0l-7.128.475L7.839,10.3H15.6a1.65,1.65,0,1,1-1.65,1.65H6.25A1.65,1.65,0,1,1,4.6,10.3H6.091L2.915,1.225H1.025a0.825,0.825,0,1,1,0-1.65H3.5a0.822,0.822,0,0,1,.776.554h0L4.759,1.5H16.975A0.822,0.822,0,0,1,17.726,2.663ZM5.337,3.15L6.862,7.507l7.089-.473L15.7,3.15H5.337Z" transform="translate(-0.188)"/>
</svg>
